<svg width="69" height="24" viewBox="0 0 69 24" fill="none" xmlns="http://www.w3.org/2000/svg">
<path d="M64.3238 0.599716C64.5093 0.842272 64.6039 1.16975 64.7931 1.82471L68.9261 16.1315C67.3736 15.2826 65.7073 14.6882 63.9847 14.3688L61.2939 4.78608C61.2724 4.70963 61.2281 4.64255 61.1674 4.59488C61.1068 4.54722 61.0331 4.52152 60.9574 4.52165C60.8818 4.52178 60.8082 4.54772 60.7477 4.59559C60.6872 4.64346 60.643 4.71069 60.6218 4.78722L57.9634 14.3639C56.2331 14.6819 54.5592 15.2773 53 16.1294L57.1532 1.8213C57.3431 1.16762 57.438 0.84071 57.6235 0.59858C57.7872 0.384704 58.0002 0.218573 58.2421 0.116024C58.5164 0 58.8407 0 59.4896 0H62.4561C63.1057 0 63.4305 0 63.7048 0.11645C63.947 0.219121 64.16 0.385507 64.3238 0.599716Z" fill="#B4B4B4"/>
<path d="M64.7587 16.8125C64.0774 17.4264 62.7175 17.8451 61.151 17.8451C59.2284 17.8451 57.617 17.2144 57.1894 16.3661C57.0365 16.8523 57.0022 17.4085 57.0022 17.7641C57.0022 17.7641 56.9016 19.5094 58.0534 20.7232C58.0534 20.4205 58.1676 20.1303 58.3707 19.9162C58.5738 19.7022 58.8493 19.582 59.1365 19.582C60.1617 19.582 60.1606 20.5245 60.1597 21.2893V21.3574C60.1597 22.5181 60.8328 23.5132 61.7902 23.9325C61.6428 23.6129 61.5664 23.2621 61.5669 22.9068C61.5669 21.7998 62.1837 21.3875 62.9005 20.9087C63.4707 20.5274 64.1044 20.1039 64.5412 19.2544C64.7763 18.7968 64.899 18.2845 64.8983 17.7641C64.8983 17.4322 64.8494 17.1126 64.7587 16.8125Z" fill="#FF5D01"/>
<path d="M7.39084 15.9079C9.11961 15.9079 10.4163 15.2597 10.9481 14.1563C10.9481 14.6817 10.9811 15.2248 11.0644 15.6451H13.9066L13.8985 15.6074C13.7725 15.0038 13.7088 14.186 13.7074 13.1215V10.3903C13.7074 7.83293 12.2777 6.62441 9.10303 6.62441C6.327 6.62441 4.46535 7.83293 4.24932 9.81229H7.2081C7.30782 8.95397 7.9892 8.48107 9.10303 8.48107C10.2 8.48107 10.815 8.95397 10.815 9.93499V10.1977L7.80646 10.4779C6.35826 10.6341 5.52919 10.893 4.94835 11.3061L4.93083 11.3186C4.31576 11.7566 4 12.4222 4 13.2454C4 14.8919 5.29645 15.9079 7.39084 15.9079ZM8.48797 14.0861C7.52372 14.0861 6.9422 13.6834 6.9422 13.0353C6.9422 12.3696 7.42399 12.0193 8.63756 11.8617L10.8648 11.6164V12.1419C10.8648 13.3154 9.90085 14.0861 8.48797 14.0861ZM19.9018 15.9079C22.7943 15.9079 24.2736 14.7694 24.2736 12.9302C24.2736 11.4064 23.4424 10.5655 21.4313 10.2852L18.921 9.98739C18.2065 9.8823 17.9071 9.68959 17.9071 9.26924C17.9071 8.76126 18.3892 8.53362 19.4862 8.53362C20.9988 8.53362 22.0461 8.90143 22.894 9.61958L24.2403 8.20088C23.3094 7.18493 21.6972 6.62441 19.7025 6.62441C16.8933 6.62441 15.3307 7.6753 15.3307 9.44448C15.3307 10.9859 16.2948 11.8442 18.2893 12.1242L20.5502 12.4046C21.4477 12.5273 21.7137 12.7024 21.7137 13.1578C21.7137 13.6832 21.215 13.9636 20.0514 13.9636C18.3228 13.9636 17.1593 13.4731 16.378 12.5624L14.8488 13.8936C15.8626 15.2248 17.5913 15.9079 19.9018 15.9079ZM26.6204 8.86635V12.5624C26.6204 14.7343 27.7838 15.8379 30.2773 15.8379C31.0419 15.8379 31.6403 15.7502 32.2055 15.5751V13.298L32.1577 13.309C31.8674 13.3752 31.5151 13.4381 31.0585 13.4381C30.0114 13.4381 29.496 12.9476 29.496 11.9142V8.86635H32.2221V6.88713H29.496V3.68164L26.6204 4.80268V6.88713H24.7586V8.86635H26.6204ZM36.3505 6.88713H33.7242V15.645H36.5998V12.3698C36.5998 11.424 36.7993 10.5657 37.348 10.0226C37.7802 9.60226 38.3952 9.37461 39.2594 9.37461C39.5753 9.37461 39.8246 9.40955 40.1071 9.44462V6.69442C39.9245 6.65934 39.7913 6.65935 39.5587 6.65935C37.913 6.65935 36.7994 7.65769 36.3505 9.28685V6.88713ZM45.7897 15.9077C48.8318 15.9077 50.9761 14.2088 50.9761 11.2486C50.9761 8.30597 48.8318 6.62441 45.7897 6.62441C42.7314 6.62441 40.5871 8.30583 40.5871 11.2486C40.5871 14.2088 42.7312 15.9079 45.7897 15.9079M45.7897 13.8937C44.3936 13.8937 43.5126 12.9479 43.5126 11.2487C43.5126 9.54971 44.3936 8.63885 45.7897 8.63885C47.1695 8.63885 48.0506 9.54971 48.0506 11.2487C48.0506 12.9478 47.1695 13.8937 45.7897 13.8937Z" fill="#B4B4B4"/>
</svg>
