<svg width="108" height="19" viewBox="0 0 108 19" fill="none" xmlns="http://www.w3.org/2000/svg">
<path d="M42.6214 11.1285L48.5808 16.2857H43.875L38.5714 11.5493V16.2857H34.7142V2.71433H38.5714V10.6943L43.47 6.78567H48.3878L42.6214 11.1285ZM27.1928 6.51433C26.3483 6.52323 25.5194 6.67603 24.7771 6.95965C24.0349 7.24326 23.4013 7.64925 22.9308 8.14284V6.78567H19.2858V16.2857H23.1428V11.8478C23.0921 11.5257 23.1363 11.1997 23.2724 10.8901C23.4085 10.5805 23.6337 10.2939 23.934 10.0482C24.2343 9.80254 24.6033 9.60297 25.0179 9.46194C25.4326 9.32091 25.884 9.24145 26.3442 9.22851C28.5814 9.22851 28.9286 10.7757 28.9286 11.8478V16.2857H32.7858V11.2507C32.7858 8.265 31.3778 6.51433 27.27 6.51433H27.1928ZM61.7142 11.7528C61.729 11.9517 61.729 12.1511 61.7142 12.35H51.5892V12.445C51.7536 13.0109 52.1991 13.5171 52.8459 13.8728C53.4928 14.2285 54.2985 14.4103 55.1186 14.3857C55.7692 14.4056 56.4188 14.3329 57.0285 14.172C57.6383 14.0111 58.1956 13.7653 58.6672 13.4493L61.2322 14.8065C60.4192 15.3903 59.4414 15.8477 58.3618 16.1492C57.2822 16.4508 56.1248 16.5897 54.9642 16.5572C54.003 16.5999 53.04 16.497 52.1402 16.2554C51.2404 16.0138 50.4248 15.6391 49.7484 15.1567C49.072 14.6743 48.5506 14.0953 48.2194 13.4589C47.8882 12.8226 47.7549 12.1436 47.8286 11.4678C47.8089 10.8008 47.9846 10.138 48.3448 9.5208C48.705 8.90362 49.242 8.34526 49.9223 7.88052C50.6026 7.41579 51.4117 7.05464 52.2991 6.81959C53.1864 6.58454 54.1331 6.48063 55.08 6.51433C58.7058 6.51433 61.7142 8.31933 61.7142 11.7528ZM58.1272 10.5857C58.113 10.3169 58.0212 10.0529 57.8574 9.80985C57.6935 9.56681 57.461 9.34979 57.1741 9.17202C56.8872 8.99426 56.5519 8.85946 56.1886 8.77584C55.8252 8.69223 55.4415 8.66155 55.0608 8.68567C53.3649 8.55668 51.829 9.39728 51.5892 10.5857H58.1272ZM3.8572 2.71433H0V16.2857H11.5714V13.5716H3.8572V2.71433ZM73.2858 2.71433H77.1428V16.2857H73.4978V15.3357C73.035 15.737 72.4451 16.0564 71.7753 16.2685C71.1056 16.4806 70.3746 16.5795 69.6408 16.5572C68.7444 16.541 67.8621 16.3959 67.0482 16.131C66.2344 15.866 65.5061 15.4867 64.9082 15.0164C64.3103 14.5461 63.8554 13.9947 63.5715 13.3961C63.2876 12.7975 63.1806 12.1644 63.2572 11.5357C63.1661 10.906 63.2623 10.27 63.5396 9.66793C63.8169 9.06589 64.2693 8.51106 64.8679 8.03875C65.4665 7.56644 66.1983 7.18698 67.0167 6.92453C67.8351 6.66208 68.7221 6.52239 69.6214 6.51433C70.2912 6.49368 70.9602 6.56704 71.5893 6.73014C72.2184 6.89324 72.7951 7.14282 73.2858 7.46433V2.71433ZM73.575 11.5357C73.6356 11.2223 73.6001 10.9034 73.4707 10.6005C73.3414 10.2976 73.1213 10.0178 72.8252 9.77981C72.5291 9.54186 72.1639 9.35136 71.7543 9.22116C71.3447 9.09095 70.9002 9.02406 70.4508 9.025C68.6057 9.11926 67.2076 10.2358 67.3072 11.5357C67.2076 12.8355 68.6057 13.9522 70.4508 14.0465C70.9003 14.0474 71.3448 13.9805 71.7544 13.8503C72.164 13.7201 72.5292 13.5296 72.8253 13.2916C73.1214 13.0537 73.3415 12.7738 73.4708 12.4709C73.6002 12.168 73.6357 11.8491 73.575 11.5357ZM15.4286 2.44284C14.8083 2.44902 14.2145 2.6206 13.7671 2.92292C13.3196 3.22524 13.0518 3.63578 13.0178 4.07164C13.0178 5.00843 14.0972 5.76798 15.4286 5.76798C16.76 5.76798 17.839 5.00828 17.839 4.07164C17.8049 3.63583 17.5371 3.22535 17.0897 2.92306C16.6423 2.62078 16.0488 2.44906 15.4286 2.44284ZM13.5 16.2857H17.3572V6.78567H13.5V16.2857ZM108 1.35716V17.6428C108 18.0028 107.797 18.348 107.435 18.6025C107.073 18.857 106.583 19 106.071 19H82.9286C82.4171 19 81.9266 18.857 81.5649 18.6025C81.2032 18.348 81 18.0028 81 17.6428V1.35716C81 0.997222 81.2032 0.652022 81.5649 0.397504C81.9266 0.142987 82.4171 0 82.9286 0L106.071 0C106.583 0 107.073 0.142987 107.435 0.397504C107.797 0.652022 108 0.997222 108 1.35716ZM88.7142 6.78567H84.8572V16.2857H88.7142V6.78567ZM89.1964 4.07149C89.1964 3.13455 88.117 2.375 86.7858 2.375C85.4544 2.375 84.375 3.13455 84.375 4.07149C84.375 5.00828 85.4544 5.76784 86.7858 5.76784C88.117 5.76784 89.1964 5.00828 89.1964 4.07149ZM104.143 11.2507C104.143 8.265 102.735 6.51433 98.6272 6.51433C97.7695 6.51438 96.9251 6.66296 96.1683 6.94697C95.4115 7.23097 94.7657 7.64167 94.2878 8.14284V6.78567H90.6428V16.2857H94.5V11.8478C94.4493 11.5257 94.4935 11.1997 94.6296 10.8901C94.7657 10.5805 94.9909 10.2939 95.2912 10.0482C95.5915 9.80254 95.9605 9.60297 96.3751 9.46194C96.7898 9.32091 97.2412 9.24145 97.7014 9.22851C99.9386 9.22851 100.286 10.7757 100.286 11.8478V16.2857H104.143V11.2507Z" fill="#B4B4B4"/>
</svg>
